{"title":"Operation Rogue 2014 DVDRip XViD AC3-FWOLF","uid":11634468,"size":1386883107,"categoryP":"video","categoryS":"movies","magnet":"?xt=urn:btih:06d64b328362ee8f354e4e26b7ffdadb5ef75122&amp;dn=Operation+Rogue+2014+DVDRip+XViD+AC3-FWOLF&amp;tr=udp%3A%2F%2Ftracker.openbittorrent.com%3A80&amp;tr=udp%3A%2F%2Fopen.demonii.com%3A1337&amp;tr=udp%3A%2F%2Ftracker.coppersurfer.tk%3A6969&amp;tr=udp%3A%2F%2Fexodus.desync.com%3A6969","seeders":0,"leechers":0,"uploader":"TvTeam","files":6,"time":1417714762,"description":" &lt;a href=&quot;https://www.torrenting.com&quot; rel=&quot;nofollow&quot; target=&quot;_NEW&quot;&gt;https://www.torrenting.com&lt;/a&gt;\n\nSign up is OPEN - for time being. Come and have fun.\n\n------------------------------------------------------------------Operation Rogue 2014 DVDRip XViD AC3-FWOLF\n\nimdb.... &lt;a href=&quot;\nhttp://www.imdb.com/title/tt3560658/&quot; rel=&quot;nofollow&quot; target=&quot;_NEW&quot;&gt;\nhttp://www.imdb.com/title/tt3560658/&lt;/a&gt;\n\n\nDeep in the jungles of Southeast Asia, a terrorist organization \nhas stolen materials to create a dangerous chemical bomb.\n\n\n\nDirector: Brian Clyde\n\nWriters:  Mike MacLean\n\n   \nStars:    Mark Dacascos, Sofia Pernas, Treat Williams\n\n\nFormat                                   : AVI\nFormat/Info                              : Audio Video Interleave\nFile size                                : 1.29 GiB\nDuration                                 : 1h 24mn\nOverall bit rate                         : 2 185 Kbps\n\nVideo\nID                                       : 0\nFormat                                   : MPEG-4 Visual\nFormat profile                           : Advanced Simple@L5\nFormat settings, BVOP                    : 2\nFormat settings, QPel                    : Yes\nFormat settings, GMC                     : No warppoints\nFormat settings, Matrix                  : Default (H.263)\nCodec ID                                 : XVID\nCodec ID/Hint                            : XviD\nDuration                                 : 1h 24mn\nBit rate                                 : 1 793 Kbps\nWidth                                    : 720 pixels\nHeight                                   : 400 pixels\nDisplay aspect ratio                     : 16:9\nFrame rate                               : 25.000 fps\nColor space                              : YUV\nChroma subsampling                       : 4:2:0\nBit depth                                : 8 bits\nScan type                                : Progressive\nCompression mode                         : Lossy\nBits/(Pixel*Frame)                       : 0.249\nStream size                              : 1.06 GiB (82%)\nWriting library                          : XviD 1.2.1 (UTC 2008-12-04)\n\nAudio\nID                                       : 1\nFormat                                   : AC-3\nFormat/Info                              : Audio Coding 3\nMode extension                           : CM (complete main)\nFormat settings, Endianness              : Big\nCodec ID                                 : 2000\nDuration                                 : 1h 24mn\nBit rate mode                            : Constant\nBit rate                                 : 384 Kbps\nChannel(s)                               : 6 channels\nChannel positions                        : Front: L C R, Side: L R, LFE\nSampling rate                            : 48.0 KHz\nBit depth                                : 16 bits\nCompression mode                         : Lossy\nStream size                              : 232 MiB (18%)\nAlignment                                : Aligned on interleaves\nInterleave, duration                     : 64 ms (1.60 video frames)\nInterleave, preload duration             : 192 ms\nTitle                                    : English\n\n\n\n\n\nEncoded....................FWOLF              \n\nSource.....................DVD 9 PAL 5.52 GB RETAIL (Thanks!)\n\nSample.....................Yes\n\nSubs.......................(srt)English,Greek \n\n\n\n\n\n[img]http://s2.postimg.org/dn7os8gu1/image.png[/img]\n\n\n\n\n[img]http://s29.postimg.org/nnf32gyyf/image.png[/img]\n\n\n\n\n[img]http://s30.postimg.org/4xnihk2y9/image.png[/img]\n\n\n\n\nGreetz To: PsiX | Blacksheep | CFR | tomcat-12...\n.....and all P2P Encoders and Groups","torrent":{"xt":"urn:btih:06d64b328362ee8f354e4e26b7ffdadb5ef75122","amp;dn":"Operation+Rogue+2014+DVDRip+XViD+AC3-FWOLF","amp;tr":["udp%3A%2F%2Ftracker.openbittorrent.com%3A80","udp%3A%2F%2Fopen.demonii.com%3A1337","udp%3A%2F%2Ftracker.coppersurfer.tk%3A6969","udp%3A%2F%2Fexodus.desync.com%3A6969"],"infoHash":"06d64b328362ee8f354e4e26b7ffdadb5ef75122","infoHashBuffer":{"type":"Buffer","data":[6,214,75,50,131,98,238,143,53,78,78,38,183,255,218,219,94,247,81,34]},"announce":[],"urlList":[]}}